<?xml version="1.0" encoding="utf-8"?>
<!-- Generator: Adobe Illustrator 14.0.0, SVG Export Plug-In . SVG Version: 6.00 Build 43363)  -->
<!DOCTYPE svg PUBLIC "-//W3C//DTD SVG 1.1//EN" "http://www.w3.org/Graphics/SVG/1.1/DTD/svg11.dtd">
<svg version="1.1" id="Layer_1" xmlns="http://www.w3.org/2000/svg" xmlns:xlink="http://www.w3.org/1999/xlink" x="0px" y="0px"
	 width="425px" height="205px" viewBox="426.025 210.982 425 205" enable-background="new 426.025 210.982 425 205"
	 xml:space="preserve">
<g transform="translate(0.000000,640.000000) scale(0.100000,-0.100000)">
	<path d="M7652.821,2335.73c30.576,6.826,49.766,13.984,83.584,31.543c50.742,26.67,92.373,60.498,189.619,155.469
		c120.342,117.412,149.287,140.176,204.902,160.996c69.932,26.338,207.832,49.756,334.033,56.27l43.252,2.275l2.598,94.316
		c3.584,125.225,3.906,783.511,0.332,845.635l-2.93,48.784l-52.041,5.527c-129.121,13.989-240.684,39.683-302.803,69.604
		c-38.369,18.213-71.875,45.859-160.02,132.373c-111.885,109.604-144.727,135.952-203.594,163.271
		c-90.098,41.958-173.359,39.678-342.158-9.76c-105.381-30.894-174.004-49.434-206.211-55.288
		c-46.503-8.779-166.191-10.405-233.847-3.252c-93.34,9.434-212.383,32.197-306.377,58.54c-22.119,6.181-41.309,10.088-42.275,8.784
		c-1.309-1.299-2.93-5.205-4.238-8.784c-1.621-5.85,3.584-8.452,57.568-26.665c141.484-48.462,270.928-80.659,376.309-93.999
		c33.174-3.901,57.891-4.878,102.451-3.574c60.175,1.626,70.576,3.252,238.398,34.473c133.359,24.722,221.494,21.792,280.693-9.756
		c81.963-43.579,141.152-152.866,118.389-217.261c-9.111-25.693-16.592-32.524-58.223-52.69
		c-53.34-25.693-88.789-35.449-133.672-37.729c-75.781-3.579-115.791,15.615-224.414,106.357
		c-64.082,53.667-94.648,75.454-132.051,94.321c-107.333,53.667-221.171,55.293-412.089,6.177
		c-20.156-5.2-37.402-9.429-38.379-9.429c-2.598,0-1.299-15.938,1.631-17.563c1.299-0.977,20.811,0.649,42.93,3.574
		c59.844,8.13,214.336,8.13,243.604,0c43.262-11.382,100.83-46.182,144.082-86.514c9.111-8.13,40.01-41.309,69.287-73.828
		c113.506-125.874,140.498-140.83,256.943-141.157c76.748,0,109.277,9.434,207.822,60.493
		c77.412,40.005,95.303,46.836,147.334,57.896c70.254,14.961,124.902,10.732,170.752-13.335
		c64.404-33.828,110.586-108.955,102.783-166.523c-7.48-53.989-43.906-98.877-101.797-125.542
		c-51.719-24.072-138.232-40.01-183.447-34.478c-42.93,5.527-71.875,17.886-143.75,61.47
		c-67.656,40.981-127.822,66.997-186.367,80.337c-47.158,10.732-88.789,14.961-181.162,17.886
		c-100.82,3.257-151.885,8.135-216.289,21.143c-113.183,22.769-190.263,55.938-344.755,147.983
		c-156.113,93.345-232.549,126.846-341.504,148.965c-61.797,13.008-111.553,17.886-180.508,18.213l-66.675,0.327l-40.005-13.662
		c-22.119-7.808-78.711-31.226-125.22-52.69c-173.354-78.711-230.601-95.947-317.764-95.625c-34.15,0.327-49.761,1.626-69.604,7.158
		c-35.449,9.434-70.898,25.366-99.521,44.561c-29.595,19.512-77.407,66.348-100.503,97.896
		c-15.933,22.119-17.236,23.096-24.717,19.839c-4.556-1.953-8.13-4.551-8.13-5.85c0-4.556,33.174-57.246,50.088-79.36
		c48.789-64.727,103.75-103.428,169.126-119.365c61.147-14.639,110.908-12.036,265.396,13.335
		c159.048,26.67,167.5,27.319,265.078,27.646h87.813l30.898-11.06c97.578-34.478,167.822-91.069,178.887-144.409
		c4.873-24.395-2.93-67.974-17.891-98.872c-14.639-29.6-37.08-50.415-75.459-69.927c-68.301-35.127-151.235-51.714-222.139-44.883
		c-64.072,6.504-123.916,26.665-208.154,70.576c-138.232,72.202-167.822,86.514-205.557,101.475
		c-88.789,35.127-134.326,43.906-228.643,44.233c-62.773,0-75.781-0.977-107.007-7.48
		c-70.249-14.961-117.734-35.776-233.198-101.802c-125.547-71.553-172.705-92.368-240.356-107.329
		c-112.534-24.395-289.79,4.229-560.068,90.415c-37.402,12.036-68.301,20.815-69.277,20.166c-0.649-0.977-1.948-4.878-2.275-9.106
		c-0.977-6.504,3.901-9.434,42.935-26.021c121.963-52.69,281.66-105.049,382.813-125.869
		c93.667-18.862,159.038-22.114,224.087-11.055c60.82,10.405,96.929,22.769,213.032,73.501
		c134.004,58.223,172.383,69.277,251.743,71.88c81.309,2.603,140.176-11.055,191.24-44.233
		c56.597-37.402,78.711-80.659,70.903-138.228c-4.878-35.449-17.891-61.143-43.257-85.215
		c-45.532-43.584-122.617-71.553-229.297-82.939c-29.595-3.252-40.654-2.92-70.249,1.309
		c-47.813,7.158-80.986,19.189-175.957,62.764c-90.42,41.631-141.157,59.854-187.017,67.656
		c-41.304,7.158-66.675,6.504-93.345-1.631c-27.319-8.125-88.14-39.346-136.279-69.277
		c-44.229-27.969-118.711-79.678-118.711-82.607c0-1.299,2.275-4.873,4.878-8.457c4.229-5.527,6.182-4.873,38.052,14.961
		c75.781,47.49,147.988,83.916,191.245,97.246c29.595,8.789,57.896,7.158,112.212-6.826c50.41-13.008,89.438-27.969,162.617-62.451
		c146.035-68.945,202.305-87.813,292.72-98.545c121.968-14.307,223.442,3.574,331.748,57.891
		c17.886,8.789,68.95,38.057,113.833,65.049c85.542,51.387,155.469,88.145,189.619,99.521c29.6,10.088,74.805,15.947,147.012,19.521
		c35.122,1.621,81.309,5.85,102.451,9.434c21.465,3.574,60.166,9.756,86.191,13.33c124.561,18.218,205.547,50.415,326.543,130.098
		c35.771,23.74,76.758,48.789,91.064,55.62c47.813,22.764,91.074,29.595,148.311,23.091c88.467-10.41,148.633-38.379,205.234-94.644
		c55.293-54.971,66.348-116.113,33.496-182.134c-39.678-79.365-149.941-134.658-267.998-134.658
		c-62.119,0-93.994,8.457-224.092,59.521c-137.578,54.316-183.438,66.348-254.023,66.025
		c-81.309-0.654-154.16-25.371-238.398-81.641c-18.862-12.676-67.002-48.779-107.007-80.332
		c-40.005-31.543-89.766-68.623-110.903-82.607c-39.355-26.348-94.648-54.971-117.739-61.475
		c-30.249-8.135-80.01-2.93-133.35,14.639c-37.08,12.354-101.479,43.584-118.394,57.891c-13.33,11.387-14.634,11.709-20.161,6.504
		c-3.579-3.252-6.177-6.826-6.177-8.135c0-4.551,63.418-53.984,97.568-76.426c83.916-54.971,155.142-78.057,216.289-69.932
		c68.95,9.434,121.641,37.734,230.923,124.248c83.257,66.348,115.459,88.789,155.142,108.633
		c43.906,22.109,73.828,28.945,114.482,26.67c40.986-2.275,78.389-12.363,121.318-33.506c44.229-21.143,75.127-48.135,92.041-79.688
		c9.756-18.213,10.41-21.465,8.457-39.346c-9.434-82.285-48.135-147.334-103.096-173.359
		c-39.033-18.213-65.703-22.109-139.531-20.166c-53.345,1.309-80.664,4.229-174.009,18.213
		c-139.854,20.498-184.087,24.395-253.687,22.119c-129.448-4.229-219.541-40.654-296.626-119.688
		c-29.595-30.576-42.935-48.135-68.623-90.742c-18.862-31.23-20.166-34.482-14.966-38.057c3.252-2.275,7.485-4.229,9.434-4.229
		c1.953,0,12.036,12.041,22.119,26.992c67.002,98.555,144.082,151.894,241.65,166.533c77.412,11.699,136.279,4.551,331.426-40.664
		c139.854-32.197,189.297-39.023,278.086-39.023c63.74,0,96.914,3.906,153.838,17.89c97.9,24.395,199.053,83.906,291.748,172.373
		c9.756,9.434,41.953,34.473,71.543,55.947c150.273,108.955,214.013,134.648,348.017,140.83
		c152.539,7.148,225.713,36.094,373.379,147.334c111.553,84.238,161.973,108.955,234.824,114.81
		c49.756,4.224,120.01-9.761,168.154-33.501c56.914-28.301,92.041-70.576,111.885-134.326c6.504-20.488,7.803-31.543,7.803-68.301
		c0-41.309-0.654-44.883-8.789-60.498c-33.164-62.773-103.096-107.324-194.492-123.594c-40.332-7.148-103.105-6.172-143.76,1.953
		c-40.977,8.457-77.402,20.498-170.098,56.27c-172.705,66.68-231.572,76.113-308.008,49.434
		c-67.969-23.74-110.908-58.867-208.154-170.752c-58.867-67.646-92.041-95.947-144.404-121.309
		c-42.939-21.143-57.9-23.418-152.539-23.096c-64.404,0.322-95.303,1.953-130.098,6.826c-25.049,3.584-45.537,6.182-45.859,6.182
		c-0.332-0.322-1.299-4.229-2.607-9.102c-1.953-8.457-1.299-9.111,19.844-15.293c80.332-24.063,172.705-41.631,231.895-44.561
		c61.152-3.252,136.602,13.018,192.871,41.309c40.654,20.82,74.805,45.537,153.516,111.562
		c26.67,22.764,61.143,49.434,76.436,59.844c90.088,61.143,172.373,60.82,284.912-1.953c25.039-13.984,28.291-16.914,36.426-33.174
		c35.127-71.23-37.402-204.902-137.578-253.691c-33.496-16.26-59.199-22.441-105.703-24.717
		c-48.457-2.598-89.443,2.93-212.061,27.969c-125.537,26.025-149.287,29.277-209.13,29.277c-86.836,0-186.367-17.891-326.865-58.545
		c-67.334-19.512-187.344-59.844-192.871-65.049c-1.299-1.299-1.631-5.859-0.654-10.41l1.953-8.135l26.67,7.813
		c162.295,47.803,356.143,77.08,467.373,70.898c78.389-4.229,117.089-13.008,263.447-60.82
		c93.35-30.244,130.098-40.332,172.383-46.504C7565.331,2329.871,7626.483,2329.871,7652.821,2335.73z"/>
</g>
</svg>
